<?xml version="1.0" standalone="no"?>
<!DOCTYPE svg PUBLIC "-//W3C//DTD SVG 20010904//EN"
 "http://www.w3.org/TR/2001/REC-SVG-20010904/DTD/svg10.dtd">
<svg version="1.0" xmlns="http://www.w3.org/2000/svg"
 width="4786.000000pt" height="2059.000000pt" viewBox="0 0 4786.000000 2059.000000"
 preserveAspectRatio="xMidYMid meet">

<g transform="translate(0.000000,2059.000000) scale(0.100000,-0.100000)"
fill="#000000" stroke="none">
<path d="M4071 15983 l-1569 -3140 694 -694 c382 -382 694 -700 694 -706 0 -7
-230 -632 -511 -1389 -280 -757 -508 -1378 -505 -1381 3 -3 139 -9 303 -14
164 -4 375 -10 469 -14 l171 -5 384 1060 384 1060 1587 -1587 1586 -1586
-1055 -2111 c-580 -1161 -1057 -2113 -1059 -2115 -1 -2 -488 967 -1081 2153
l-1078 2156 -467 0 c-258 0 -468 -2 -468 -5 0 -3 696 -1397 1546 -3097 l1546
-3093 1411 2820 c1398 2796 1410 2820 1424 2790 8 -16 452 -1072 987 -2345
l972 -2315 458 -3 c414 -2 458 -1 452 14 -3 8 -1285 3058 -2847 6777 -1563
3719 -2851 6784 -2862 6810 -13 32 -23 44 -28 35 -4 -7 -316 -848 -694 -1868
-379 -1020 -691 -1858 -694 -1862 -4 -4 -161 147 -350 336 l-343 343 1057
2114 1058 2114 1076 -2153 1076 -2152 472 0 473 0 -1546 3093 c-850 1700
-1548 3094 -1550 3096 -1 2 -709 -1410 -1573 -3136z m2659 -4736 c568 -1352
1030 -2460 1028 -2462 -2 -2 -646 638 -1430 1423 l-1427 1427 378 1040 c207
572 380 1049 385 1060 7 19 8 19 20 -5 7 -14 478 -1131 1046 -2483z"/>
<path d="M43812 13203 l3 -2028 27 -100 c80 -293 252 -484 536 -598 156 -62
407 -107 603 -107 l79 0 0 270 0 270 -42 0 c-75 0 -180 28 -264 70 -137 67
-231 183 -280 345 -17 57 -19 161 -21 1983 l-3 1922 -320 0 -320 0 2 -2027z"/>
<path d="M15307 15160 c-180 -23 -375 -78 -508 -146 -352 -177 -593 -484 -654
-833 -18 -98 -20 -336 -4 -446 41 -294 172 -546 378 -722 169 -144 305 -220
737 -408 616 -269 804 -394 908 -606 113 -229 116 -467 9 -672 -45 -86 -169
-214 -255 -266 -225 -132 -521 -168 -844 -102 -207 42 -474 141 -618 229 -38
24 -70 41 -71 40 -1 -2 -57 -133 -124 -293 -115 -273 -121 -290 -104 -303 45
-34 269 -135 378 -171 237 -77 436 -105 740 -105 311 0 520 31 748 110 411
143 741 452 856 801 69 207 67 535 -4 803 -53 200 -188 422 -332 547 -171 149
-316 232 -704 404 -576 256 -712 329 -829 448 -129 130 -188 269 -197 462 -10
214 41 355 181 495 92 91 176 139 311 176 107 29 373 31 510 5 205 -40 468
-128 604 -203 35 -19 65 -33 68 -31 2 3 48 126 102 273 l99 269 -27 22 c-104
90 -355 171 -642 208 -142 19 -606 29 -712 15z"/>
<path d="M31203 15143 c-4 -10 -460 -1074 -1014 -2365 l-1007 -2348 383 0 383
0 29 78 c16 42 99 263 184 490 l154 412 929 -2 928 -3 171 -487 170 -488 379
0 c208 0 378 1 378 3 0 1 -422 1064 -939 2362 l-938 2360 -92 3 c-80 2 -92 1
-98 -15z m417 -2231 c188 -546 344 -1002 347 -1012 5 -20 -6 -20 -732 -20
-585 0 -736 3 -733 13 62 178 764 2024 769 2019 3 -4 160 -454 349 -1000z"/>
<path d="M21955 14667 l-310 -113 -3 -357 -2 -357 -210 0 -210 0 0 -240 0
-240 210 0 209 0 3 -1062 3 -1063 27 -100 c33 -119 108 -275 176 -365 134
-177 335 -312 552 -372 79 -21 103 -23 350 -22 191 0 304 5 405 18 133 16 383
61 392 69 3 4 -87 519 -92 525 -2 2 -56 -15 -121 -37 -176 -59 -272 -74 -434
-68 -203 8 -318 46 -417 140 -68 64 -106 124 -138 219 -53 161 -55 194 -55
1196 l0 922 500 0 500 0 0 240 0 240 -500 0 -500 0 0 470 c0 370 -3 470 -12
469 -7 0 -152 -51 -323 -112z"/>
<path d="M38664 13894 c-82 -91 -154 -172 -160 -179 -8 -11 -32 -3 -120 40
-214 106 -380 139 -714 139 -253 1 -324 -8 -499 -60 -188 -57 -385 -173 -536
-315 -250 -238 -365 -511 -365 -870 0 -377 96 -632 325 -865 114 -116 212
-187 355 -259 l75 -38 -100 -32 c-134 -43 -203 -75 -301 -140 -96 -65 -156
-128 -193 -205 -22 -47 -26 -68 -25 -145 3 -322 213 -494 640 -525 161 -11
308 0 579 45 310 51 386 58 518 45 204 -19 332 -64 413 -145 49 -49 72 -89 90
-160 72 -268 -164 -492 -601 -571 -156 -28 -466 -26 -605 4 -215 47 -475 152
-683 275 -43 26 -82 47 -85 47 -6 -1 -343 -462 -350 -479 -1 -3 37 -30 85 -58
266 -157 644 -281 997 -328 152 -20 462 -20 630 0 586 69 1041 338 1194 707
84 202 79 495 -11 699 -103 232 -338 411 -637 483 -241 59 -490 60 -870 3
-388 -59 -528 -66 -670 -36 -101 22 -148 68 -136 133 13 67 98 120 273 171 68
19 160 32 403 55 359 34 418 42 550 76 430 108 777 418 903 809 44 134 60 245
59 415 0 174 -18 303 -58 432 -32 100 -99 237 -149 303 -29 37 -34 50 -24 56
53 31 364 258 364 266 0 5 -81 80 -180 167 -99 88 -192 170 -206 183 l-26 24
-149 -167z m-794 -501 c251 -58 466 -280 530 -545 27 -111 27 -298 1 -424 -35
-172 -96 -288 -211 -405 -123 -124 -253 -176 -461 -186 -322 -15 -567 125
-705 402 -68 139 -87 222 -88 400 -1 175 16 254 87 389 58 113 190 245 302
303 164 85 362 109 545 66z"/>
<path d="M18810 13885 c-201 -28 -348 -73 -525 -163 -432 -220 -730 -648 -826
-1187 -21 -115 -24 -162 -24 -395 0 -291 12 -398 65 -606 150 -583 562 -994
1121 -1118 298 -66 669 -62 952 10 501 127 878 484 1047 993 158 473 141 1125
-39 1566 -215 525 -650 839 -1253 904 -129 14 -400 12 -518 -4z m505 -499
c420 -91 644 -385 716 -941 18 -138 15 -469 -4 -605 -32 -215 -90 -395 -180
-545 -66 -113 -204 -256 -302 -313 -239 -140 -591 -159 -867 -48 -297 120
-475 395 -545 841 -27 169 -24 570 5 725 94 514 378 834 797 900 81 12 294 5
380 -14z"/>
<path d="M25385 13894 c-174 -21 -334 -59 -462 -110 -113 -46 -163 -72 -268
-142 -388 -257 -631 -667 -701 -1182 -21 -159 -21 -486 1 -655 43 -334 151
-616 326 -848 296 -395 723 -587 1304 -587 317 0 550 48 790 165 415 201 710
602 810 1099 35 175 45 291 45 511 0 380 -54 656 -179 920 -228 480 -641 761
-1213 824 -89 10 -381 13 -453 5z m440 -509 c391 -82 616 -356 701 -855 21
-129 30 -476 15 -621 -40 -377 -181 -686 -393 -858 -78 -65 -218 -134 -323
-163 -110 -29 -351 -31 -475 -5 -389 84 -615 354 -703 841 -19 105 -22 157
-22 401 0 226 4 298 18 372 55 289 155 498 314 657 140 141 285 213 491 246
81 13 283 5 377 -15z"/>
<path d="M35289 13889 c-332 -48 -606 -225 -798 -513 l-46 -69 -3 266 -2 267
-325 0 -325 0 0 -1705 0 -1705 325 0 325 0 0 1011 c0 1111 1 1129 60 1304 53
157 135 288 256 409 250 250 570 305 879 151 49 -24 91 -43 93 -41 6 7 262
568 262 576 0 8 -138 30 -300 50 -98 12 -320 11 -401 -1z"/>
<path d="M41170 13885 c-438 -60 -841 -303 -1120 -675 -83 -111 -196 -331
-240 -468 -64 -201 -90 -383 -90 -642 0 -197 9 -297 40 -448 133 -641 652
-1133 1325 -1258 153 -29 577 -26 770 4 257 40 480 108 670 202 93 47 215 126
215 142 0 5 -77 131 -246 400 l-24 37 -74 -53 c-138 -99 -317 -174 -515 -217
-122 -26 -398 -37 -523 -20 -447 60 -766 319 -896 731 -36 112 -62 276 -62
384 l0 76 1314 0 1314 0 17 73 c51 224 34 555 -41 784 -172 528 -637 873
-1275 947 -159 19 -426 19 -559 1z m591 -528 c384 -100 637 -388 666 -757 l6
-80 -1010 0 -1011 0 14 72 c76 401 389 703 811 783 126 23 401 14 524 -18z"/>
<path d="M35510 7615 c0 -231 -4 -415 -9 -415 -5 0 -14 6 -20 14 -21 25 -146
75 -230 92 -64 12 -118 15 -225 12 -124 -4 -151 -8 -228 -35 -269 -94 -497
-344 -582 -637 -51 -176 -54 -412 -6 -602 53 -214 202 -405 389 -503 135 -70
210 -86 401 -85 135 1 179 5 243 22 84 23 179 67 233 109 l34 25 0 -66 0 -66
170 0 170 0 0 1275 0 1275 -170 0 -170 0 0 -415z m-185 -595 c42 -16 78 -41
122 -84 l63 -62 0 -506 0 -506 -31 -27 c-44 -36 -112 -69 -198 -95 -64 -20
-88 -22 -175 -17 -296 19 -470 149 -543 407 -14 52 -18 101 -18 240 0 170 1
177 31 261 74 209 227 355 420 404 89 22 252 15 329 -15z"/>
<path d="M24626 7981 c-3 -5 -246 -569 -540 -1255 l-534 -1246 203 0 203 0 30
78 c16 42 60 159 97 260 l68 182 492 0 493 0 90 -257 90 -258 202 -3 c190 -2
202 -1 196 15 -4 10 -228 575 -499 1255 l-492 1238 -47 0 c-26 0 -49 -4 -52
-9z m222 -1192 c101 -292 181 -533 179 -535 -2 -2 -177 -3 -389 -2 l-386 3
201 533 c110 292 203 532 206 532 3 0 88 -239 189 -531z"/>
<path d="M31545 7953 c-76 -40 -115 -100 -115 -177 0 -116 86 -196 210 -196
220 0 293 269 100 368 -53 27 -149 30 -195 5z"/>
<path d="M20472 7779 c-85 -15 -201 -65 -292 -127 -92 -62 -108 -84 -151 -212
-28 -80 -30 -221 -5 -289 27 -72 84 -157 160 -238 l72 -76 -90 -61 c-120 -79
-300 -258 -354 -351 -66 -114 -85 -182 -86 -310 0 -95 4 -121 28 -190 32 -95
92 -193 176 -292 70 -82 128 -120 258 -166 83 -29 95 -31 279 -35 216 -4 299
7 434 59 140 54 320 193 406 314 20 28 22 29 40 14 10 -9 110 -98 222 -198
l205 -181 76 0 75 0 73 82 c39 44 72 84 72 88 0 4 -130 123 -290 266 -159 142
-290 262 -290 266 0 5 89 176 199 381 109 205 206 387 215 405 l17 32 -205 0
-205 0 -127 -252 c-69 -139 -135 -268 -146 -286 l-20 -32 -86 79 c-48 44 -127
117 -177 164 l-90 84 55 28 c177 90 322 233 381 375 30 73 32 203 5 275 -45
119 -157 250 -270 315 -110 63 -155 73 -341 76 -93 1 -194 -1 -223 -7z m255
-238 c152 -70 223 -239 158 -379 -30 -65 -117 -150 -191 -186 l-55 -27 -28 20
c-55 39 -134 136 -165 201 -26 54 -31 77 -31 136 0 61 4 77 30 120 45 72 140
131 215 133 14 0 44 -8 67 -18z m48 -1201 c146 -140 265 -257 265 -261 0 -15
-105 -165 -147 -210 -60 -64 -190 -150 -271 -179 -81 -29 -131 -23 -239 30
-112 55 -181 120 -222 210 -80 174 -52 326 90 475 66 70 234 198 251 193 4 -2
127 -118 273 -258z"/>
<path d="M26275 7304 c-111 -23 -242 -92 -308 -163 -81 -88 -102 -146 -102
-291 0 -109 2 -118 33 -184 24 -52 53 -90 112 -147 84 -83 70 -76 482 -273
147 -70 218 -135 243 -221 18 -60 11 -126 -19 -183 -37 -71 -122 -113 -246
-120 -115 -6 -217 22 -379 105 -68 35 -125 62 -127 61 -6 -7 -114 -284 -114
-294 0 -15 174 -86 260 -108 179 -44 433 -47 583 -7 172 45 305 142 366 265
64 130 65 307 3 440 -68 145 -181 226 -516 367 -174 74 -214 97 -263 153 -88
100 -83 221 11 285 144 99 387 74 581 -59 36 -25 46 -28 51 -17 3 8 25 75 49
148 32 98 41 136 32 141 -27 18 -268 90 -346 103 -105 19 -294 18 -386 -1z"/>
<path d="M27997 7301 c-316 -69 -551 -313 -629 -652 -28 -124 -30 -391 -4
-514 43 -199 110 -329 237 -456 74 -76 99 -93 190 -137 131 -63 218 -83 389
-89 281 -10 490 62 654 224 110 109 179 233 223 403 34 128 43 378 20 525 -58
363 -259 599 -582 686 -117 32 -375 36 -498 10z m361 -256 c81 -19 133 -46
189 -98 134 -123 190 -310 180 -597 -8 -229 -58 -377 -169 -495 -100 -107
-219 -152 -378 -142 -317 21 -473 243 -473 672 1 215 37 353 126 478 69 96
149 152 260 182 69 18 187 18 265 0z"/>
<path d="M30116 7309 c-383 -56 -667 -305 -758 -666 -19 -75 -23 -115 -23
-278 0 -209 14 -286 74 -420 103 -226 313 -399 566 -466 166 -43 459 -36 664
17 105 27 281 106 281 125 0 11 -128 259 -134 259 -1 0 -38 -20 -82 -45 -157
-90 -270 -119 -429 -112 -293 13 -491 163 -561 422 -22 84 -29 265 -15 365 50
339 271 540 593 540 49 0 123 -7 165 -16 85 -17 212 -65 254 -95 15 -10 29
-19 32 -19 3 0 42 50 88 111 96 128 97 116 -27 175 -90 42 -199 78 -296 98
-84 17 -290 20 -392 5z"/>
<path d="M32725 7300 c-108 -23 -220 -61 -295 -101 -102 -55 -100 -39 -20
-188 40 -72 73 -131 74 -131 2 0 33 20 70 45 82 55 190 90 322 105 112 12 180
7 276 -21 87 -25 163 -92 202 -178 24 -54 57 -214 45 -225 -2 -2 -40 4 -84 15
-210 50 -531 1 -735 -114 -99 -55 -245 -199 -283 -279 -132 -276 -27 -583 244
-717 108 -53 173 -65 329 -58 217 10 386 70 506 180 30 27 56 48 57 46 2 -2 8
-15 14 -29 53 -122 161 -181 356 -196 l87 -7 0 80 0 79 -53 55 c-91 93 -90 87
-97 644 -8 532 -9 543 -77 685 -69 143 -208 252 -378 295 -162 40 -407 47
-560 15z m623 -920 l52 -12 0 -218 0 -218 -65 -60 c-35 -34 -85 -73 -111 -88
-124 -73 -271 -98 -402 -70 -133 28 -198 83 -227 191 -55 211 114 415 400 481
71 16 272 13 353 -6z"/>
<path d="M36905 7309 c-274 -54 -483 -219 -601 -475 -54 -115 -75 -218 -81
-392 -9 -243 23 -411 109 -572 107 -202 269 -330 493 -392 69 -19 105 -22 265
-22 205 0 280 14 409 74 333 156 509 535 461 995 -35 339 -175 573 -419 699
-136 70 -216 88 -416 92 -93 1 -192 -1 -220 -7z m306 -259 c134 -25 248 -110
310 -232 87 -172 109 -488 49 -706 -83 -301 -323 -454 -607 -387 -188 44 -297
161 -354 380 -26 100 -37 335 -20 445 40 262 176 441 374 495 62 16 174 19
248 5z"/>
<path d="M38640 7305 c-131 -27 -231 -77 -310 -156 -61 -61 -96 -134 -111
-227 -26 -171 42 -330 189 -444 80 -62 131 -90 320 -174 91 -41 187 -88 213
-105 59 -37 126 -109 145 -154 36 -88 -1 -221 -75 -270 -57 -38 -153 -58 -246
-52 -98 7 -191 38 -333 112 -58 30 -109 52 -112 48 -4 -5 -24 -51 -45 -103
-20 -52 -46 -117 -56 -143 l-19 -48 73 -34 c170 -79 351 -111 565 -102 270 11
452 93 552 249 56 85 74 164 68 296 -4 99 -8 116 -40 183 -39 83 -95 146 -183
206 -77 52 -125 76 -320 158 -191 81 -259 124 -299 189 -37 60 -47 146 -22
195 42 80 157 126 300 119 124 -7 249 -53 362 -133 21 -16 22 -14 68 131 26
81 44 150 39 155 -15 15 -218 78 -320 98 -118 24 -300 27 -403 6z"/>
<path d="M31190 7155 l0 -135 130 0 130 0 0 -770 0 -770 170 0 170 0 0 905 0
905 -300 0 -300 0 0 -135z"/>
</g>
</svg>
