<svg width="50" height="50" viewBox="0 0 50 50" fill="none" xmlns="http://www.w3.org/2000/svg">
    <mask id="mask0_40_357" style="mask-type:alpha" maskUnits="userSpaceOnUse" x="0" y="0"
        width="50" height="50">
        <rect width="50" height="50" fill="#D9D9D9" />
    </mask>
    <g mask="url(#mask0_40_357)">
        <path
            d="M39.5833 33.3333C37.0833 33.3333 34.8785 32.5521 32.9688 30.9896C31.059 29.4271 29.8611 27.4306 29.375 25H23.1771L20.6771 20.8333H29.375C29.5486 20.0695 29.783 19.3403 30.0781 18.6458C30.3733 17.9514 30.7639 17.2917 31.25 16.6667H18.125L15.625 12.5H33.4375L31.1458 6.25001H22.9167V2.08334H31.1458C32.0486 2.08334 32.8472 2.33508 33.5417 2.83855C34.2361 3.34202 34.7396 4.01043 35.0521 4.84376L37.8646 12.5H39.5833C42.4653 12.5 44.9219 13.5156 46.9531 15.5469C48.9844 17.5781 50 20.0347 50 22.9167C50 25.7986 48.9844 28.2552 46.9531 30.2865C44.9219 32.3177 42.4653 33.3333 39.5833 33.3333ZM39.5833 29.1667C41.3194 29.1667 42.7951 28.559 44.0104 27.3438C45.2257 26.1285 45.8333 24.6528 45.8333 22.9167C45.8333 21.1806 45.2257 19.7049 44.0104 18.4896C42.7951 17.2743 41.3194 16.6667 39.5833 16.6667H39.4271L41.4583 22.2396L37.5 23.6458L35.5208 18.1771C34.8264 18.7674 34.2882 19.4792 33.9062 20.3125C33.5243 21.1458 33.3333 22.0139 33.3333 22.9167C33.3333 24.6528 33.941 26.1285 35.1562 27.3438C36.3715 28.559 37.8472 29.1667 39.5833 29.1667ZM14.5833 47.9167C12.8472 47.9167 11.3715 47.309 10.1562 46.0938C8.94097 44.8785 8.33333 43.4028 8.33333 41.6667H0V37.5H9.94792C10.4688 36.9792 11.1285 36.5017 11.9271 36.0677C12.7257 35.6337 13.6111 35.4167 14.5833 35.4167C15.4514 35.4167 16.2847 35.5903 17.0833 35.9375C17.8819 36.2847 18.5938 36.8056 19.2188 37.5H25V33.3333H0V29.1667H4.16667V22.9167H0V18.75H14.5833L20.8333 29.1667H25C26.1458 29.1667 27.1267 29.5747 27.9427 30.3906C28.7587 31.2066 29.1667 32.1875 29.1667 33.3333V37.5C29.1667 38.6458 28.7587 39.6267 27.9427 40.4427C27.1267 41.2587 26.1458 41.6667 25 41.6667H20.8333C20.8333 43.4028 20.2257 44.8785 19.0104 46.0938C17.7951 47.309 16.3194 47.9167 14.5833 47.9167ZM8.33333 29.1667H15.9896L12.2396 22.9167H8.33333V29.1667ZM14.5833 43.75C15.1736 43.75 15.6684 43.5504 16.0677 43.1511C16.467 42.7517 16.6667 42.257 16.6667 41.6667C16.6667 41.0764 16.467 40.5816 16.0677 40.1823C15.6684 39.783 15.1736 39.5833 14.5833 39.5833C13.9931 39.5833 13.4983 39.783 13.099 40.1823C12.6997 40.5816 12.5 41.0764 12.5 41.6667C12.5 42.257 12.6997 42.7517 13.099 43.1511C13.4983 43.5504 13.9931 43.75 14.5833 43.75Z"
            fill="white" />
    </g>
</svg>