<svg width="50" height="50" viewBox="0 0 50 50" fill="none" xmlns="http://www.w3.org/2000/svg">
    <mask id="mask0_40_351" style="mask-type:alpha" maskUnits="userSpaceOnUse" x="0" y="0"
        width="50" height="50">
        <rect width="50" height="50" fill="#D9D9D9" />
    </mask>
    <g mask="url(#mask0_40_351)">
        <path
            d="M8.33329 43.75C7.18746 43.75 6.20656 43.342 5.39058 42.526C4.57461 41.7101 4.16663 40.7292 4.16663 39.5833V16.6667C4.16663 15.5208 4.57461 14.5399 5.39058 13.7239C6.20656 12.908 7.18746 12.5 8.33329 12.5H16.6666V8.33332C16.6666 7.18749 17.0746 6.20659 17.8906 5.39061C18.7066 4.57464 19.6875 4.16666 20.8333 4.16666H29.1666C30.3125 4.16666 31.2934 4.57464 32.1093 5.39061C32.9253 6.20659 33.3333 7.18749 33.3333 8.33332V12.5H41.6666C42.8125 12.5 43.7934 12.908 44.6093 13.7239C45.4253 14.5399 45.8333 15.5208 45.8333 16.6667V39.5833C45.8333 40.7292 45.4253 41.7101 44.6093 42.526C43.7934 43.342 42.8125 43.75 41.6666 43.75H8.33329ZM8.33329 39.5833H41.6666V16.6667H8.33329V39.5833ZM20.8333 12.5H29.1666V8.33332H20.8333V12.5Z"
            fill="white" />
    </g>
</svg>