<?xml version="1.0" standalone="no"?>
<!DOCTYPE svg PUBLIC "-//W3C//DTD SVG 20010904//EN"
 "http://www.w3.org/TR/2001/REC-SVG-20010904/DTD/svg10.dtd">
<svg version="1.0" xmlns="http://www.w3.org/2000/svg"
 width="247.000000pt" height="256.000000pt" viewBox="0 0 247.000000 256.000000"
 preserveAspectRatio="xMidYMid meet">

<g transform="translate(0.000000,256.000000) scale(0.100000,-0.100000)"
fill="#000000" stroke="none">
<path d="M1272 2218 c-7 -7 -12 -15 -12 -19 0 -4 -65 -154 -145 -333 -80 -179
-145 -328 -145 -331 0 -3 17 -5 38 -5 l38 0 137 339 c75 186 137 344 137 350
0 15 -33 14 -48 -1z"/>
<path d="M1390 2216 c0 -22 210 -658 222 -673 9 -11 78 -19 78 -9 0 2 -27 75
-61 162 -84 221 -175 463 -186 499 -10 33 -53 50 -53 21z"/>
<path d="M1211 1431 l-294 -6 -59 -130 c-32 -71 -56 -135 -54 -142 6 -14 73
-18 93 -5 6 4 31 57 55 117 l44 110 326 3 326 2 31 -97 c42 -136 198 -667 266
-906 34 -119 53 -203 48 -208 -5 -5 -253 -8 -594 -7 l-584 3 3 25 c2 14 47
160 99 325 53 165 102 319 109 343 l13 43 -50 -3 -51 -3 -48 -135 c-26 -74
-91 -258 -144 -407 -53 -150 -96 -277 -96 -283 0 -7 279 -10 833 -10 l832 1
-59 31 c-32 18 -68 46 -81 63 -13 18 -105 280 -225 645 -111 338 -206 619
-211 625 -12 12 -138 13 -528 6z"/>
<path d="M702 888 c-5 -7 -47 -112 -92 -233 -111 -295 -184 -470 -220 -528
-35 -56 -31 -60 56 -55 l58 3 127 340 c70 187 138 370 152 406 14 37 23 69 20
73 -11 11 -90 6 -101 -6z"/>
</g>
</svg>
